<svg width="34" height="28" viewBox="0 0 34 28" fill="none" xmlns="http://www.w3.org/2000/svg">
<g filter="url(#filter0_i_125_1778)">
<rect width="34" height="28" rx="10" fill="url(#paint0_linear_125_1778)"/>
<path fill-rule="evenodd" clip-rule="evenodd" d="M17 9.5C17.2761 9.5 17.5 9.72386 17.5 10V13.5H21C21.2761 13.5 21.5 13.7239 21.5 14C21.5 14.2761 21.2761 14.5 21 14.5H17.5V18C17.5 18.2761 17.2761 18.5 17 18.5C16.7239 18.5 16.5 18.2761 16.5 18V14.5H13C12.7239 14.5 12.5 14.2761 12.5 14C12.5 13.7239 12.7239 13.5 13 13.5H16.5V10C16.5 9.72386 16.7239 9.5 17 9.5Z" fill="white"/>
</g>
<defs>
<filter id="filter0_i_125_1778" x="0" y="-2" width="34" height="30" filterUnits="userSpaceOnUse" color-interpolation-filters="sRGB">
<feFlood flood-opacity="0" result="BackgroundImageFix"/>
<feBlend mode="normal" in="SourceGraphic" in2="BackgroundImageFix" result="shape"/>
<feColorMatrix in="SourceAlpha" type="matrix" values="0 0 0 0 0 0 0 0 0 0 0 0 0 0 0 0 0 0 127 0" result="hardAlpha"/>
<feMorphology radius="1" operator="erode" in="SourceAlpha" result="effect1_innerShadow_125_1778"/>
<feOffset dy="-2"/>
<feGaussianBlur stdDeviation="3"/>
<feComposite in2="hardAlpha" operator="arithmetic" k2="-1" k3="1"/>
<feColorMatrix type="matrix" values="0 0 0 0 1 0 0 0 0 1 0 0 0 0 1 0 0 0 0.5 0"/>
<feBlend mode="normal" in2="shape" result="effect1_innerShadow_125_1778"/>
</filter>
<linearGradient id="paint0_linear_125_1778" x1="17" y1="0" x2="17" y2="28" gradientUnits="userSpaceOnUse">
<stop stop-color="#00A2ED"/>
<stop offset="1" stop-color="#007AFF"/>
</linearGradient>
</defs>
</svg>
