<svg width="84" height="24" viewBox="0 0 84 24" fill="none" xmlns="http://www.w3.org/2000/svg">
<path d="M16.99 12.4228C17.2024 12.6561 17.5058 12.8019 17.8396 12.8019H19.8116L18.7497 18.5759C18.507 19.8591 17.3541 20.8214 15.9888 20.8214C15.4124 20.8214 14.9573 21.2005 14.8663 21.7254L14.836 21.7837C14.5932 23.0668 13.4403 24 12.0751 24H2.73054L3.09462 22.1045C3.15529 21.7837 3.06428 21.4629 2.8519 21.2005C2.63953 20.9672 2.30579 20.8214 1.97206 20.8214H0L0.48543 18.2552C0.697805 16.9429 1.88104 16.0097 3.24631 16.0097H5.91618L5.58244 17.9052C5.52177 18.226 5.61278 18.5468 5.82516 18.8092C6.03754 19.0425 6.37127 19.1883 6.705 19.1883H12.6515C13.1976 19.1883 13.6831 18.8092 13.7741 18.2843L14.2595 15.7181C14.3202 15.3973 14.2292 15.0474 13.9865 14.8141C13.7741 14.5516 13.4707 14.4058 13.1369 14.4058H11.1649L11.62 11.8396C11.8627 10.5565 13.0459 9.59417 14.4112 9.59417H17.0811L16.717 11.5188C16.6563 11.8396 16.7473 12.1604 16.99 12.4228ZM19.5992 3.20778H21.5713L21.1162 5.774C20.8735 7.08627 19.6903 8.01944 18.325 8.01944H15.6551L16.0192 6.12394C16.0799 5.80316 15.9888 5.45322 15.7461 5.21993C15.5338 4.95747 15.2304 4.81166 14.8966 4.81166H8.91978C8.37367 4.81166 7.88824 5.19076 7.79722 5.74483L7.34213 8.31106C7.28145 8.63183 7.37247 8.95261 7.58484 9.21507C7.79722 9.44836 8.13095 9.59417 8.46468 9.59417H10.4367L9.95131 12.1895C9.7086 13.4727 8.5557 14.4058 7.16009 14.4058H4.49023L4.8543 12.5103C4.91498 12.1895 4.82396 11.8688 4.61158 11.6063C4.39921 11.373 4.06548 11.2272 3.73174 11.2272H1.75968L2.82156 5.45322C3.06428 4.14095 4.21717 3.20778 5.61278 3.20778C6.15889 3.20778 6.64432 2.82868 6.73534 2.30377V2.24544C6.97806 0.962333 8.13095 0 9.52656 0H18.8407L18.4767 1.92467C18.416 2.24544 18.507 2.56622 18.7497 2.82868C18.9621 3.06197 19.2655 3.20778 19.5992 3.20778Z" fill="white"/>
<path d="M39.9285 3.20778H41.9006L39.079 18.5759C38.8363 19.8591 37.6834 20.8214 36.3181 20.8214C35.7417 20.8214 35.2866 21.2005 35.1956 21.7254L35.1652 21.7837C34.9225 23.0668 33.7696 24 32.4043 24H29.7345L30.1896 21.4338C30.4323 20.1507 31.6155 19.1883 32.9808 19.1883C33.5269 19.1883 34.0123 18.8092 34.1033 18.2843L36.3485 6.12394C36.4091 5.80316 36.3181 5.45322 36.0754 5.21993C35.863 4.95747 35.5596 4.81166 35.2259 4.81166H29.2794C29.2794 4.81166 29.2794 4.81166 29.249 4.81166C28.7029 4.81166 28.2175 5.19076 28.1265 5.74483L25.9117 17.9052C25.851 18.226 25.9421 18.5468 26.1544 18.8092C26.3668 19.0425 26.7005 19.1883 27.0343 19.1883H28.976L28.5209 21.7837C28.2782 23.0668 27.1253 24 25.7297 24H23.0598L23.4239 22.1045C23.4846 21.7837 23.3936 21.4629 23.1812 21.2005C22.9688 20.9672 22.6351 20.8214 22.3013 20.8214H20.3293L23.1508 5.45322C23.3935 4.14095 24.5464 3.20778 25.9421 3.20778C26.4882 3.20778 26.9736 2.82868 27.0646 2.30377V2.24544C27.3073 0.962333 28.4602 0 29.8558 0H39.17L38.806 1.92467C38.7453 2.24544 38.8363 2.56622 39.079 2.82868C39.2914 3.06197 39.5948 3.20778 39.9285 3.20778Z" fill="white"/>
<path d="M55.637 0H61.9172L61.4014 2.85784C61.1891 3.99514 60.1575 4.81166 58.9439 4.81166H55.0605C54.6661 4.81166 54.3324 5.10328 54.2717 5.45322L51.2074 22.0462C50.995 23.1835 49.9938 24 48.7803 24H45.807L49.1747 5.71567C49.2353 5.42406 49.0836 5.19076 48.9926 5.10328C48.9016 4.98663 48.7196 4.81166 48.3858 4.81166H42.682L43.1978 1.98299C43.4102 0.845686 44.4417 0 45.6553 0H51.9355L51.5108 2.30377C51.4501 2.62454 51.6018 2.82868 51.6928 2.94532C51.7839 3.03281 51.9659 3.20778 52.2996 3.20778C52.694 3.20778 53.0278 2.94532 53.0884 2.56622L53.1795 1.98299C53.3918 0.845686 54.4234 0 55.637 0Z" fill="white"/>
<path d="M75.6244 12.4228C75.8368 12.6561 76.1402 12.8019 76.4739 12.8019H78.446L77.3841 18.5759C77.1414 19.8591 75.9885 20.8214 74.6232 20.8214C74.0468 20.8214 73.5917 21.2005 73.5007 21.7254L73.4703 21.7837C73.2276 23.0668 72.0747 24 70.7095 24H61.3649L61.729 22.1045C61.7897 21.7837 61.6987 21.4629 61.4863 21.2005C61.2739 20.9672 60.9402 20.8214 60.6064 20.8214H58.6344L59.1198 18.2552C59.3322 16.9429 60.5154 16.0097 61.8807 16.0097H64.5506L64.2168 17.9052C64.1562 18.226 64.2472 18.5468 64.4595 18.8092C64.6719 19.0425 65.0057 19.1883 65.3394 19.1883H71.2859C71.832 19.1883 72.3174 18.8092 72.4085 18.2843L72.8939 15.7181C72.9546 15.3973 72.8636 15.0474 72.6208 14.8141C72.4085 14.5516 72.1051 14.4058 71.7713 14.4058H69.7993L70.2544 11.8396C70.4971 10.5565 71.6803 9.59417 73.0456 9.59417H75.7154L75.3514 11.5188C75.2907 11.8396 75.3817 12.1604 75.6244 12.4228ZM78.2336 3.20778H80.2057L79.7506 5.774C79.5079 7.08627 78.3246 8.01944 76.9594 8.01944H74.2895L74.6536 6.12394C74.7143 5.80316 74.6232 5.45322 74.3805 5.21993C74.1681 4.95747 73.8648 4.81166 73.531 4.81166H67.5542C67.008 4.81166 66.5226 5.19076 66.4316 5.74483L65.9765 8.31106C65.9158 8.63183 66.0069 8.95261 66.2192 9.21507C66.4316 9.44836 66.7653 9.59417 67.0991 9.59417H69.0711L68.5857 12.1895C68.343 13.4727 67.1901 14.4058 65.7945 14.4058H63.1246L63.4887 12.5103C63.5494 12.1895 63.4583 11.8688 63.246 11.6063C63.0336 11.373 62.6999 11.2272 62.3661 11.2272H60.3941L61.4559 5.45322C61.6987 4.14095 62.8516 3.20778 64.2472 3.20778C64.7933 3.20778 65.2787 2.82868 65.3697 2.30377V2.24544C65.6124 0.962333 66.7653 0 68.1609 0H77.4751L77.1111 1.92467C77.0504 2.24544 77.1414 2.56622 77.3841 2.82868C77.5965 3.06197 77.8999 3.20778 78.2336 3.20778Z" fill="white"/>
<path d="M81.0874 19.1883H84L83.4842 21.9879C83.2719 23.1543 82.21 24 80.9661 24H78.0838L78.5996 21.2296C78.812 20.034 79.8435 19.1883 81.0874 19.1883Z" fill="white"/>
</svg>
