<svg width="10" height="10" viewBox="0 0 10 10" fill="none" xmlns="http://www.w3.org/2000/svg">
<path fill-rule="evenodd" clip-rule="evenodd" d="M3.58474 1.6962C4.23685 0.647165 5.76359 0.647165 6.41569 1.6962L8.95851 5.78681C9.64864 6.89703 8.85027 8.33337 7.54303 8.33337H2.45741C1.15017 8.33337 0.351794 6.89703 1.04193 5.78681L3.58474 1.6962ZM5.00033 3.33333C5.23044 3.33333 5.41699 3.51988 5.41699 3.75V5C5.41699 5.23012 5.23044 5.41667 5.00033 5.41667C4.77021 5.41667 4.58366 5.23012 4.58366 5V3.75C4.58366 3.51988 4.77021 3.33333 5.00033 3.33333ZM4.47949 6.25C4.47949 5.96235 4.71268 5.72917 5.00033 5.72917C5.28797 5.72917 5.52116 5.96235 5.52116 6.25C5.52116 6.53765 5.28797 6.77083 5.00033 6.77083C4.71268 6.77083 4.47949 6.53765 4.47949 6.25Z" fill="#FF9F0A"/>
</svg>
