<svg width="10" height="10" viewBox="0 0 10 10" fill="none" xmlns="http://www.w3.org/2000/svg">
<g clip-path="url(#clip0_412_3556)">
<path d="M6.87467 6.87492C7.26216 6.87492 7.45591 6.87492 7.61487 6.83233C8.04623 6.71674 8.38316 6.37981 8.49875 5.94844C8.54134 5.78948 8.54134 5.59574 8.54134 5.20825V3.45825C8.54134 2.75819 8.54134 2.40815 8.4051 2.14076C8.28526 1.90556 8.09403 1.71434 7.85883 1.59449C7.59144 1.45825 7.24141 1.45825 6.54134 1.45825H4.99967C4.61219 1.45825 4.41844 1.45825 4.25948 1.50084C3.82812 1.61643 3.49118 1.95336 3.3756 2.38473C3.33301 2.54369 3.33301 2.73743 3.33301 3.12492M6.87467 5.12492V6.54159C6.87467 7.24165 6.87467 7.59168 6.73843 7.85907C6.61859 8.09428 6.42737 8.2855 6.19216 8.40534C5.92477 8.54159 5.57474 8.54159 4.87467 8.54159H3.45801C2.75794 8.54159 2.40791 8.54159 2.14052 8.40534C1.90532 8.2855 1.71409 8.09428 1.59425 7.85907C1.45801 7.59168 1.45801 7.24165 1.45801 6.54159V5.12492C1.45801 4.42485 1.45801 4.07482 1.59425 3.80743C1.71409 3.57223 1.90532 3.381 2.14052 3.26116C2.40791 3.12492 2.75794 3.12492 3.45801 3.12492H4.87467C5.57474 3.12492 5.92477 3.12492 6.19216 3.26116C6.42737 3.381 6.61859 3.57223 6.73843 3.80743C6.87467 4.07482 6.87467 4.42485 6.87467 5.12492Z" stroke="#0A0A0A" stroke-linecap="round" stroke-linejoin="round"/>
</g>
<defs>
<clipPath id="clip0_412_3556">
<rect width="10" height="10" fill="white"/>
</clipPath>
</defs>
</svg>
