<svg width="14" height="14" viewBox="0 0 14 14" fill="none" xmlns="http://www.w3.org/2000/svg">
<path fill-rule="evenodd" clip-rule="evenodd" d="M2.50435 2.50435C2.73216 2.27654 3.1015 2.27654 3.32931 2.50435L7.00016 6.17521L10.671 2.50435C10.8988 2.27654 11.2682 2.27654 11.496 2.50435C11.7238 2.73216 11.7238 3.1015 11.496 3.32931L7.82512 7.00016L11.496 10.671C11.7238 10.8988 11.7238 11.2682 11.496 11.496C11.2682 11.7238 10.8988 11.7238 10.671 11.496L7.00016 7.82512L3.32931 11.496C3.1015 11.7238 2.73216 11.7238 2.50435 11.496C2.27654 11.2682 2.27654 10.8988 2.50435 10.671L6.17521 7.00016L2.50435 3.32931C2.27654 3.1015 2.27654 2.73216 2.50435 2.50435Z" fill="#E0E0E0"/>
</svg>
