<svg width="10" height="10" viewBox="0 0 10 10" fill="none" xmlns="http://www.w3.org/2000/svg">
<path fill-rule="evenodd" clip-rule="evenodd" d="M1.66667 5.83333C1.89679 5.83333 2.08333 6.01988 2.08333 6.25V7.08333C2.08333 7.54357 2.45643 7.91667 2.91667 7.91667H7.08333C7.54357 7.91667 7.91667 7.54357 7.91667 7.08333V6.25C7.91667 6.01988 8.10321 5.83333 8.33333 5.83333C8.56345 5.83333 8.75 6.01988 8.75 6.25V7.08333C8.75 8.00381 8.00381 8.75 7.08333 8.75H2.91667C1.99619 8.75 1.25 8.00381 1.25 7.08333V6.25C1.25 6.01988 1.43655 5.83333 1.66667 5.83333Z" fill="#0A84FF"/>
<path fill-rule="evenodd" clip-rule="evenodd" d="M5 6.45833C5.1105 6.45833 5.21648 6.41443 5.29462 6.33629L6.75296 4.87796C6.91568 4.71524 6.91568 4.45143 6.75296 4.28871C6.59024 4.12599 6.32642 4.12599 6.1637 4.28871L5.41666 5.03575V1.66667C5.41666 1.43655 5.23011 1.25 5 1.25C4.76988 1.25 4.58333 1.43655 4.58333 1.66667V5.03574L3.83629 4.28871C3.67358 4.12599 3.40976 4.12599 3.24704 4.28871C3.08432 4.45142 3.08432 4.71524 3.24704 4.87796L4.70537 6.33629C4.78351 6.41443 4.88949 6.45833 5 6.45833Z" fill="#0A84FF"/>
</svg>
