<svg width="16" height="16" viewBox="0 0 16 16" fill="none" xmlns="http://www.w3.org/2000/svg">
<g clip-path="url(#clip0_270_393)">
<path d="M9.00002 8.5C9.00002 9.326 9.61502 10 10.36 10C11.122 10 11.71 9.329 11.72 8.5C11.73 7.671 11.125 7 10.36 7C9.59202 7 9.00002 7.677 9.00002 8.5ZM5.63002 10C4.88302 10 4.27002 9.329 4.27002 8.5C4.27002 7.671 4.86602 7 5.63002 7C6.39402 7 7.01002 7.677 7.00002 8.5C6.98702 9.326 6.39802 10 5.64002 10H5.63002Z" fill="white"/>
<path fill-rule="evenodd" clip-rule="evenodd" d="M13.3002 2.71986C13.4653 2.79459 13.607 2.9128 13.7102 3.06186C15.4202 5.53186 16.2802 8.35186 15.9602 11.5919C15.9465 11.7321 15.9033 11.8678 15.8335 11.9901C15.7637 12.1125 15.6689 12.2187 15.5552 12.3019C14.3952 13.1529 13.0852 13.8019 11.7052 14.2119C11.5103 14.2706 11.302 14.2678 11.1088 14.2039C10.9155 14.1401 10.7466 14.0182 10.6252 13.8549C10.3833 13.5319 10.1612 13.1946 9.96016 12.8449C8.68412 13.1133 7.36619 13.1133 6.09016 12.8449C5.89171 13.196 5.66987 13.5334 5.42616 13.8549C5.30304 14.019 5.13242 14.1413 4.93743 14.2052C4.74244 14.269 4.53252 14.2714 4.33616 14.2119C2.95435 13.7967 1.65267 13.151 0.486157 12.3019C0.372333 12.2186 0.277406 12.1122 0.207606 11.9897C0.137807 11.8671 0.0947139 11.7312 0.0811569 11.5909C-0.187843 8.80086 0.358157 5.95086 2.33116 3.07086C2.43416 2.91986 2.57716 2.79986 2.74416 2.72386C3.74316 2.27186 4.79416 1.94986 5.88416 1.76686C6.29916 1.69686 6.71416 1.89486 6.92416 2.26086L7.01316 2.42186C7.68649 2.36386 8.36316 2.36386 9.04316 2.42186L9.13116 2.26086C9.23247 2.08138 9.38677 1.93759 9.57293 1.84916C9.75909 1.76074 9.96803 1.73199 10.1712 1.76686C11.2512 1.94786 12.3112 2.26886 13.3112 2.72186L13.3002 2.71986ZM9.63016 3.49586C8.56591 3.33889 7.4844 3.33889 6.42016 3.49586C6.30979 3.24161 6.1863 2.99328 6.05016 2.75186C5.05216 2.91986 4.08016 3.21686 3.16016 3.63386C1.33016 6.31386 0.840157 8.92386 1.08016 11.4939C2.15016 12.2769 3.35016 12.8739 4.62016 13.2539C4.7854 13.0349 4.93927 12.8076 5.08116 12.5729C5.18649 12.3995 5.28549 12.2229 5.37816 12.0429C4.96397 11.8901 4.56409 11.701 4.18316 11.4779C4.28316 11.4052 4.38082 11.3325 4.47616 11.2599C5.07845 11.5395 5.71143 11.7476 6.36216 11.8799C7.74054 12.1556 9.16608 12.081 10.5082 11.6629C10.8638 11.5526 11.2113 11.4176 11.5482 11.2589C11.6442 11.3369 11.7418 11.4095 11.8412 11.4769C11.7479 11.5306 11.6539 11.5829 11.5592 11.6339C11.263 11.7895 10.9574 11.9265 10.6442 12.0439C10.8003 12.344 10.9732 12.6352 11.1622 12.9159C11.2402 13.0292 11.3205 13.1415 11.4032 13.2529C12.6732 12.8729 13.8732 12.2779 14.9432 11.4929C15.2342 8.51286 14.4462 5.92286 12.8632 3.63286C11.9432 3.21586 10.9732 2.92086 9.97316 2.75386C9.83716 2.99519 9.71382 3.24319 9.60316 3.49786L9.63016 3.49586Z" fill="white"/>
</g>
<defs>
<clipPath id="clip0_270_393">
<rect width="16" height="16" fill="white"/>
</clipPath>
</defs>
</svg>
