<svg width="18" height="18" viewBox="0 0 18 18" fill="none" xmlns="http://www.w3.org/2000/svg">
<g clip-path="url(#clip0_256_3994)">
<path d="M9 17C13.4183 17 17 13.4183 17 9C17 4.58172 13.4183 1 9 1C4.58172 1 1 4.58172 1 9C1 13.4183 4.58172 17 9 17Z" fill="white"/>
<path d="M2.65355 4.12939C2.02514 4.94699 1.5513 5.88933 1.27539 6.91305H5.4372L2.65355 4.12939Z" fill="#0052B4"/>
<path d="M16.7242 6.91302C16.4483 5.88933 15.9745 4.94699 15.3461 4.12939L12.5625 6.91302H16.7242Z" fill="#0052B4"/>
<path d="M1.27539 11.0872C1.55133 12.1108 2.02517 13.0532 2.65355 13.8708L5.43711 11.0872H1.27539Z" fill="#0052B4"/>
<path d="M13.8705 2.65382C13.0529 2.02542 12.1106 1.55157 11.0869 1.27563V5.43742L13.8705 2.65382Z" fill="#0052B4"/>
<path d="M4.12939 15.3463C4.94699 15.9747 5.88933 16.4486 6.91302 16.7245V12.5627L4.12939 15.3463Z" fill="#0052B4"/>
<path d="M6.91299 1.27563C5.8893 1.55157 4.94696 2.02542 4.12939 2.65379L6.91299 5.43738V1.27563Z" fill="#0052B4"/>
<path d="M11.0869 16.7245C12.1106 16.4486 13.0529 15.9747 13.8705 15.3463L11.0869 12.5627V16.7245Z" fill="#0052B4"/>
<path d="M12.5625 11.0872L15.3461 13.8708C15.9745 13.0532 16.4483 12.1108 16.7242 11.0872H12.5625Z" fill="#0052B4"/>
<path d="M16.9323 7.95653H10.0435H10.0435V1.06772C9.70191 1.02325 9.35366 1 9 1C8.64628 1 8.29809 1.02325 7.95653 1.06772V7.95647V7.9565H1.06772C1.02325 8.29809 1 8.64634 1 9C1 9.35372 1.02325 9.70191 1.06772 10.0435H7.95647H7.9565V16.9323C8.29809 16.9768 8.64628 17 9 17C9.35366 17 9.70191 16.9768 10.0435 16.9323V10.0435V10.0435H16.9323C16.9768 9.70191 17 9.35372 17 9C17 8.64634 16.9768 8.29809 16.9323 7.95653Z" fill="#D80027"/>
<path d="M11.0869 11.0869L14.6568 14.6568C14.821 14.4927 14.9776 14.3211 15.127 14.1432L12.0707 11.0869H11.0869V11.0869Z" fill="#D80027"/>
<path d="M6.91317 11.0869H6.91311L3.34326 14.6568C3.50739 14.8209 3.67898 14.9776 3.85686 15.127L6.91317 12.0706V11.0869Z" fill="#D80027"/>
<path d="M6.91317 6.91299V6.91292L3.3433 3.34302C3.17911 3.50714 3.02248 3.67874 2.87305 3.85661L5.92939 6.91296H6.91317V6.91299Z" fill="#D80027"/>
<path d="M11.0869 6.9132L14.6568 3.34327C14.4927 3.17908 14.3211 3.02245 14.1432 2.87305L11.0869 5.92939V6.9132Z" fill="#D80027"/>
</g>
<rect x="0.75" y="0.75" width="16.5" height="16.5" rx="8.25" stroke="#424242" stroke-width="0.5"/>
<defs>
<clipPath id="clip0_256_3994">
<rect x="1" y="1" width="16" height="16" rx="8" fill="white"/>
</clipPath>
</defs>
</svg>
