<svg width="18" height="18" viewBox="0 0 18 18" fill="none" xmlns="http://www.w3.org/2000/svg">
<g clip-path="url(#clip0_256_3991)">
<path d="M9 17C13.4183 17 17 13.4183 17 9C17 4.58172 13.4183 1 9 1C4.58172 1 1 4.58172 1 9C1 13.4183 4.58172 17 9 17Z" fill="white"/>
<path d="M16.5024 11.7825C16.824 10.9158 17 9.97844 17 8.99988C17 8.02132 16.824 7.08394 16.5024 6.21729H1.49759C1.17603 7.08394 1 8.02132 1 8.99988C1 9.97844 1.17603 10.9158 1.49759 11.7825L9 12.4781L16.5024 11.7825Z" fill="#0052B4"/>
<path d="M8.99996 17.0001C12.4397 17.0001 15.372 14.8291 16.5024 11.7827H1.49756C2.6279 14.8291 5.56025 17.0001 8.99996 17.0001Z" fill="#D80027"/>
</g>
<rect x="0.75" y="0.75" width="16.5" height="16.5" rx="8.25" stroke="#EEEEEE" stroke-width="0.5"/>
<defs>
<clipPath id="clip0_256_3991">
<rect x="1" y="1" width="16" height="16" rx="8" fill="white"/>
</clipPath>
</defs>
</svg>
