<svg width="24" height="24" viewBox="0 0 24 24" fill="none" xmlns="http://www.w3.org/2000/svg">
<path d="M13.3651 2.83001C15.1132 3.05998 16.7592 3.78477 18.1091 4.91901C18.4471 5.20301 18.4451 5.71301 18.1331 6.02501L16.5171 7.64101C16.2051 7.95301 15.7011 7.94701 15.3461 7.68501C14.4606 7.03072 13.3952 6.66471 12.2945 6.63668C11.1939 6.60864 10.1112 6.91992 9.19352 7.52828C8.27583 8.13663 7.56754 9.01261 7.16476 10.0373C6.76199 11.062 6.68424 12.1858 6.94206 13.2562C7.19988 14.3267 7.7808 15.2918 8.60597 16.0208C9.43113 16.7497 10.4606 17.2071 11.5546 17.3309C12.6487 17.4547 13.7543 17.2389 14.7215 16.7128C15.6887 16.1867 16.4706 15.3757 16.9611 14.39H13.0511C12.8389 14.39 12.6354 14.3057 12.4854 14.1557C12.3354 14.0057 12.2511 13.8022 12.2511 13.59V11.3C12.2511 11.0878 12.3354 10.8844 12.4854 10.7343C12.6354 10.5843 12.8389 10.5 13.0511 10.5H20.5441C20.8601 10.5 21.1541 10.686 21.2251 10.995C21.5381 12.357 21.1001 14.241 21.0671 14.379L21.0631 14.395C20.5351 16.358 19.4021 18.101 17.7891 19.339C16.5822 20.2649 15.1657 20.8789 13.6649 21.1265C12.1641 21.3742 10.6254 21.248 9.18503 20.759C7.74468 20.27 6.44715 19.4333 5.40735 18.3231C4.36756 17.2129 3.6176 15.8634 3.2239 14.3942C2.8302 12.9249 2.8049 11.3812 3.15026 9.89984C3.49562 8.41847 4.20096 7.04513 5.20383 5.90145C6.20669 4.75777 7.47612 3.87906 8.89968 3.34314C10.3232 2.80721 11.857 2.63163 13.3651 2.83001Z" stroke="white" stroke-width="1.5" stroke-linecap="round" stroke-linejoin="round"/>
</svg>
