<svg width="10" height="10" viewBox="0 0 10 10" fill="none" xmlns="http://www.w3.org/2000/svg">
<path fill-rule="evenodd" clip-rule="evenodd" d="M7.91667 5C7.91667 3.38917 6.61083 2.08333 5 2.08333C4.00935 2.08333 3.13346 2.57719 2.60603 3.33333L3.75 3.33333C3.98012 3.33333 4.16667 3.51988 4.16667 3.75C4.16667 3.98012 3.98012 4.16667 3.75 4.16667L1.66667 4.16667C1.43655 4.16667 1.25 3.98012 1.25 3.75L1.25 1.66667C1.25 1.43655 1.43655 1.25 1.66667 1.25C1.89679 1.25 2.08333 1.43655 2.08333 1.66667L2.08333 2.64289C2.7705 1.79364 3.82151 1.25 5 1.25C7.07107 1.25 8.75 2.92893 8.75 5C8.75 5.49653 8.65328 5.9715 8.47726 6.40634C8.39091 6.61965 8.148 6.72257 7.9347 6.63622C7.72139 6.54988 7.61847 6.30697 7.70481 6.09366C7.8413 5.75647 7.91667 5.38755 7.91667 5Z" fill="white"/>
<path d="M1.25001 5.41667C1.25001 5.64679 1.43655 5.83333 1.66667 5.83333C1.89679 5.83333 2.08334 5.64679 2.08334 5.41667C2.08334 5.18655 1.89679 5 1.66667 5C1.43655 5 1.25001 5.18655 1.25001 5.41667Z" fill="white"/>
<path d="M5.41667 8.75C5.64679 8.75 5.83334 8.56345 5.83334 8.33333C5.83334 8.10321 5.64679 7.91667 5.41667 7.91667C5.18655 7.91667 5.00001 8.10321 5.00001 8.33333C5.00001 8.56345 5.18655 8.75 5.41667 8.75Z" fill="white"/>
<path d="M4.05503 8.30394C3.93997 8.50323 3.68514 8.57151 3.48585 8.45645C3.28656 8.34139 3.21828 8.08656 3.33334 7.88728C3.4484 7.68799 3.70323 7.61971 3.90251 7.73477C4.1018 7.84982 4.17008 8.10465 4.05503 8.30394Z" fill="white"/>
<path d="M1.96075 7.2365C2.07581 7.43579 2.33064 7.50407 2.52993 7.38901C2.72922 7.27395 2.7975 7.01912 2.68244 6.81984C2.56738 6.62055 2.31255 6.55227 2.11326 6.66733C1.91398 6.78238 1.84569 7.03721 1.96075 7.2365Z" fill="white"/>
<path d="M6.66667 7.88623C6.55162 7.68694 6.6199 7.43211 6.81919 7.31705C7.01847 7.20199 7.2733 7.27027 7.38836 7.46956C7.50342 7.66885 7.43514 7.92368 7.23585 8.03874C7.03656 8.1538 6.78173 8.08551 6.66667 7.88623Z" fill="white"/>
</svg>
