<svg width="14" height="14" viewBox="0 0 14 14" fill="none" xmlns="http://www.w3.org/2000/svg">
<path fill-rule="evenodd" clip-rule="evenodd" d="M5.90853 1.72779C6.58418 1.33878 7.41582 1.33878 8.09147 1.72779L11.154 3.49103C11.8321 3.88145 12.25 4.60432 12.25 5.38678V8.61324C12.25 9.3957 11.8321 10.1186 11.154 10.509L8.09144 12.2722C7.4158 12.6612 6.5842 12.6612 5.90855 12.2723L2.84608 10.5092C2.16795 10.1188 1.75 9.39586 1.75 8.61338V5.38676C1.75 4.60431 2.16793 3.88143 2.84603 3.49102L5.90853 1.72779ZM4.88543 6.99992C4.88543 5.83207 5.83217 4.88534 7.00002 4.88534C8.16787 4.88534 9.1146 5.83207 9.1146 6.99992C9.1146 8.16777 8.16787 9.1145 7.00002 9.1145C5.83217 9.1145 4.88543 8.16777 4.88543 6.99992Z" fill="#E0E0E0"/>
</svg>
