<svg width="50" height="16" viewBox="0 0 50 16" fill="none" xmlns="http://www.w3.org/2000/svg">
<path fill-rule="evenodd" clip-rule="evenodd" d="M23.4799 6.56255C23.9666 6.56255 24.4139 6.60131 24.7559 6.73087C25.4795 7.00307 25.9399 7.61191 25.9399 8.49272C25.9399 9.36092 25.4532 10.0216 24.7296 10.2936C24.3875 10.4231 23.9272 10.4749 23.3088 10.4749H18.8623V4.30835H25.4268V5.73334H20.7698V6.56255H23.4799ZM23.3746 8.9204C23.5588 8.9204 23.7035 8.90733 23.8087 8.86857C24.0324 8.79083 24.1244 8.59638 24.1244 8.41499C24.1244 8.34655 24.1132 8.28343 24.0907 8.22739C24.0772 8.19395 24.0596 8.16294 24.0381 8.1346C24.0003 8.08521 23.9501 8.04423 23.8877 8.01345C23.8686 8.00414 23.8486 7.99573 23.8279 7.98842C23.7945 7.97668 23.759 7.9676 23.7215 7.96029C23.6211 7.9408 23.5055 7.93571 23.3746 7.93571H20.7698V8.9204H23.3746ZM28.4995 4.30835H31.2883L33.8537 10.4749H31.7093L31.341 9.58106H28.4468L28.0917 10.4749H25.9342L28.4995 4.30835ZM29.8282 5.73334L28.9204 8.22075H30.8806L29.9728 5.73334H29.8282ZM36.309 8.18199V10.4749H34.4016V4.30835H36.309V6.56255H39.3742V4.30835H41.2818V10.4749H39.3742V8.18199H36.309ZM44.3011 10.4749V8.14301H44.8273L47.1031 10.4749H49.6421L46.4717 7.2622L49.5237 4.30835H47.1295L44.8273 6.62744H44.3011V4.30835H42.3935V10.4749H44.3011Z" fill="white"/>
<path d="M0.0771484 0.343994H15.2845V7.87584C15.2845 9.80667 14.2386 11.5909 12.5407 12.5564L7.68085 15.32L2.82101 12.5564C1.12309 11.5909 0.0771484 9.80667 0.0771484 7.87584V0.343994Z" fill="#FFDD2D"/>
<path fill-rule="evenodd" clip-rule="evenodd" d="M4.25 4.30835V6.65091C4.57529 6.28918 5.16671 6.04436 5.84293 6.04436H6.57779V8.76756C6.57779 9.49206 6.3779 10.1262 6.08131 10.475H9.27779C8.98183 10.1259 8.7824 9.49251 8.7824 8.76894V6.04436H9.51729C10.1935 6.04436 10.7849 6.28918 11.1102 6.65091V4.30835H4.25Z" fill="#333333"/>
</svg>
