<svg width="13" height="12" viewBox="0 0 13 12" fill="none" xmlns="http://www.w3.org/2000/svg">
<path d="M6.69429 1.79986C6.80403 1.64061 6.81211 1.43236 6.71501 1.2651C6.61792 1.09784 6.43308 1.00158 6.24038 1.01791C3.67916 1.23492 1.66846 3.38186 1.66846 5.99895C1.66846 8.75985 3.90661 10.998 6.66752 10.998C9.28467 10.998 11.4316 8.98723 11.6486 6.42593C11.6649 6.23322 11.5686 6.04838 11.4014 5.9513C11.2341 5.85421 11.0259 5.86229 10.8666 5.97204C10.3835 6.30499 9.79854 6.49988 9.1665 6.49988C7.50965 6.49988 6.1665 5.15674 6.1665 3.49988C6.1665 2.86789 6.36137 2.28291 6.69429 1.79986Z" fill="black"/>
</svg>
