<svg width="13" height="12" viewBox="0 0 13 12" fill="none" xmlns="http://www.w3.org/2000/svg">
<g clip-path="url(#clip0_256_3987)">
<path d="M8.3335 4C8.3335 3.72386 8.10964 3.5 7.8335 3.5C7.55735 3.5 7.3335 3.72386 7.3335 4C7.3335 5.15424 7.07809 5.87122 6.6414 6.30791C6.20471 6.74459 5.48774 7 4.3335 7C4.05735 7 3.8335 7.22386 3.8335 7.5C3.8335 7.77614 4.05735 8 4.3335 8C5.48774 8 6.20471 8.25541 6.6414 8.69209C7.07809 9.12878 7.3335 9.84576 7.3335 11C7.3335 11.2761 7.55735 11.5 7.8335 11.5C8.10964 11.5 8.3335 11.2761 8.3335 11C8.3335 9.84576 8.5889 9.12878 9.02559 8.69209C9.46228 8.25541 10.1793 8 11.3335 8C11.6096 8 11.8335 7.77614 11.8335 7.5C11.8335 7.22386 11.6096 7 11.3335 7C10.1793 7 9.46228 6.74459 9.02559 6.30791C8.5889 5.87122 8.3335 5.15424 8.3335 4Z" fill="#616161"/>
<path d="M4.0835 1C4.0835 0.723858 3.85964 0.5 3.5835 0.5C3.30735 0.5 3.0835 0.723858 3.0835 1C3.0835 1.72021 2.92358 2.12469 2.69088 2.35738C2.45818 2.59008 2.05371 2.75 1.3335 2.75C1.05735 2.75 0.833496 2.97386 0.833496 3.25C0.833496 3.52614 1.05735 3.75 1.3335 3.75C2.05371 3.75 2.45818 3.90992 2.69088 4.14262C2.92358 4.37531 3.0835 4.77979 3.0835 5.5C3.0835 5.77614 3.30735 6 3.5835 6C3.85964 6 4.0835 5.77614 4.0835 5.5C4.0835 4.77979 4.24342 4.37531 4.47611 4.14262C4.70881 3.90992 5.11328 3.75 5.8335 3.75C6.10964 3.75 6.3335 3.52614 6.3335 3.25C6.3335 2.97386 6.10964 2.75 5.8335 2.75C5.11328 2.75 4.70881 2.59008 4.47611 2.35738C4.24342 2.12469 4.0835 1.72021 4.0835 1Z" fill="#616161"/>
</g>
<defs>
<clipPath id="clip0_256_3987">
<rect width="12" height="12" fill="white" transform="translate(0.333496)"/>
</clipPath>
</defs>
</svg>
