<svg width="12" height="12" viewBox="0 0 12 12" fill="none" xmlns="http://www.w3.org/2000/svg">
<g clip-path="url(#clip0_256_3981)">
<path d="M6.5 1C6.5 0.723858 6.27614 0.5 6 0.5C5.72386 0.5 5.5 0.723858 5.5 1V1.5C5.5 1.77614 5.72386 2 6 2C6.27614 2 6.5 1.77614 6.5 1.5V1Z" fill="#616161"/>
<path d="M6.5 10.5C6.5 10.2239 6.27614 10 6 10C5.72386 10 5.5 10.2239 5.5 10.5V11C5.5 11.2762 5.72386 11.5 6 11.5C6.27614 11.5 6.5 11.2762 6.5 11V10.5Z" fill="#616161"/>
<path d="M9.88848 2.11147C10.0837 2.30674 10.0837 2.62332 9.88848 2.81858L9.53347 3.17358C9.33821 3.36884 9.02163 3.36884 8.82637 3.17358C8.63111 2.97832 8.63111 2.66174 8.82637 2.46647L9.18137 2.11147C9.37663 1.91621 9.69321 1.91621 9.88848 2.11147Z" fill="#616161"/>
<path d="M3.17363 9.53354C3.36889 9.33828 3.36889 9.0217 3.17363 8.82644C2.97837 8.63118 2.66179 8.63118 2.46652 8.82644L2.11152 9.18144C1.91626 9.3767 1.91626 9.69328 2.11152 9.88854C2.30679 10.0838 2.62337 10.0838 2.81863 9.88854L3.17363 9.53354Z" fill="#616161"/>
<path d="M10 6.00001C10 5.72387 10.2239 5.50001 10.5 5.50001H11C11.2761 5.50001 11.5 5.72387 11.5 6.00001C11.5 6.27615 11.2761 6.50001 11 6.50001H10.5C10.2239 6.50001 10 6.27615 10 6.00001Z" fill="#616161"/>
<path d="M1 5.50001C0.723858 5.50001 0.5 5.72387 0.5 6.00001C0.5 6.27615 0.723858 6.50001 1 6.50001H1.5C1.77614 6.50001 2 6.27615 2 6.00001C2 5.72387 1.77614 5.50001 1.5 5.50001H1Z" fill="#616161"/>
<path d="M8.82637 8.82644C9.02163 8.63118 9.33821 8.63118 9.53347 8.82644L9.88848 9.18144C10.0837 9.3767 10.0837 9.69328 9.88848 9.88854C9.69321 10.0838 9.37663 10.0838 9.18137 9.88854L8.82637 9.53354C8.63111 9.33828 8.63111 9.0217 8.82637 8.82644Z" fill="#616161"/>
<path d="M2.81863 2.11147C2.62337 1.91621 2.30679 1.91621 2.11152 2.11147C1.91626 2.30674 1.91626 2.62332 2.11152 2.81858L2.46652 3.17358C2.66179 3.36884 2.97837 3.36884 3.17363 3.17358C3.36889 2.97832 3.36889 2.66174 3.17363 2.46647L2.81863 2.11147Z" fill="#616161"/>
<path d="M3.87868 3.87868C5.05025 2.70711 6.94975 2.70711 8.12132 3.87868C9.29289 5.05025 9.29289 6.94975 8.12132 8.12132C6.94975 9.29289 5.05025 9.29289 3.87868 8.12132C2.70711 6.94975 2.70711 5.05025 3.87868 3.87868Z" fill="#616161"/>
</g>
<defs>
<clipPath id="clip0_256_3981">
<rect width="12" height="12" fill="white"/>
</clipPath>
</defs>
</svg>
