<svg width="60" height="33" viewBox="0 0 60 33" fill="none" xmlns="http://www.w3.org/2000/svg">
<path d="M18.4404 9.13672L18.4082 9.31348L17.7979 12.6289C17.4801 14.3557 15.9719 15.6513 14.1836 15.6514C13.5315 15.6514 13.0238 16.09 12.9219 16.6943L12.9209 16.6963L11.5879 24.1543C11.5204 24.521 11.6194 24.891 11.8594 25.1982C12.097 25.4652 12.4737 25.6347 12.8496 25.6348H15.5059L15.4736 25.8115L14.8643 29.1641C14.546 30.8942 13.035 32.1502 11.2119 32.1504H7.67773L7.71094 31.9727L8.16797 29.5244L8.18555 29.3867C8.20842 29.0655 8.10539 28.7486 7.89453 28.4795C7.65681 28.2136 7.28135 28.0441 6.90625 28.0439H4.25098L4.28125 27.8682L4.97461 23.9014H0.822266L0.852539 23.7256L1.42383 20.4111V20.4092C1.74205 18.6409 3.29221 17.3857 5.07715 17.3857C5.69069 17.3857 6.23179 16.9492 6.33691 16.3516V16.2793L6.33887 16.2656C6.65686 14.5367 8.20562 13.2422 9.99219 13.2422C10.6055 13.2422 11.1465 12.8063 11.252 12.209V12.1738L11.2539 12.1602C11.5721 10.3918 13.1223 9.1368 14.9072 9.13672H18.4404ZM32.5811 25.6348L32.5488 25.8115L31.9395 29.1641L31.9385 29.1631C31.6584 30.8967 30.107 32.1504 28.3242 32.1504H24.791L24.8232 31.9727L25.4336 28.6602C25.713 26.9286 27.2626 25.6349 29.0479 25.6348H32.5811ZM52.2842 9.13672L52.251 9.31445L51.7949 11.7529C51.7613 12.1289 51.8662 12.5029 52.1074 12.8096C52.346 13.0757 52.684 13.2421 53.0938 13.2422H55.7109L55.6807 13.418L54.9863 17.3857H59.1797L59.1475 17.5625L58.5381 20.8779C58.2201 22.6441 56.7097 23.9014 54.9229 23.9014C54.2776 23.9014 53.7677 24.3318 53.625 24.9365V25.0078L53.623 25.0215C53.3053 26.7483 51.7962 28.0439 50.0078 28.0439C49.3625 28.0439 48.8526 28.4752 48.71 29.0801V29.1514L48.707 29.1641C48.3888 30.8943 46.8779 32.1503 45.0547 32.1504H41.5615L41.5918 31.9746L42.1631 28.6602L42.1641 28.6582C42.4821 26.9293 44.0299 25.6348 45.8164 25.6348C46.4327 25.6348 46.9764 25.1946 47.0781 24.5928L47.0791 24.5908L48.4121 17.1328V17.1318C48.479 16.7676 48.3819 16.4007 48.1455 16.0947C47.8634 15.8174 47.5204 15.6514 47.1504 15.6514H44.4932L44.5264 15.4746L45.1357 12.1602C45.4161 10.3904 46.967 9.13692 48.75 9.13672H52.2842ZM41.1924 0.849609L41.1602 1.02734L40.7031 3.5127C40.636 3.8775 40.7335 4.24551 40.9707 4.55176C41.2526 4.82839 41.5953 4.99314 41.9648 4.99316H44.6211L44.5889 5.16992L43.2559 12.6279V12.6289C42.9381 14.3558 41.4291 15.6514 39.6406 15.6514C38.9953 15.6514 38.4854 16.0827 38.3428 16.6875V16.7588L38.3398 16.7715C38.0218 18.5008 36.5117 19.7577 34.7256 19.7578C34.0859 19.7578 33.5719 20.2196 33.4277 20.8301V20.8643L33.4248 20.877C33.1071 22.6435 31.5975 23.9012 29.8105 23.9014H26.2783L26.3096 23.7246L27.6426 16.2686C27.9215 14.5365 29.4722 13.2423 31.2578 13.2422H35.4492C36.0656 13.2422 36.6093 12.8021 36.7109 12.2002L36.7119 12.1973L37.3213 8.88281C37.3897 8.51058 37.2854 8.11048 37.0205 7.84863L37.0137 7.84277L37.0078 7.83496C36.77 7.53281 36.4324 7.36523 36.0205 7.36523H28.5527C27.9386 7.36529 27.3934 7.80354 27.291 8.44434V8.44727L26.5283 12.624L26.5293 12.625C26.2505 14.3573 24.6998 15.6512 22.9141 15.6514H19.3818L19.4131 15.4756L20.7471 8.01758C21.0648 6.25105 22.5744 4.99328 24.3613 4.99316C25.0072 4.99316 25.517 4.56167 25.6592 3.95605V3.88672L25.6621 3.87305C25.98 2.14531 27.4891 0.849821 29.3145 0.849609H41.1924Z" fill="url(#paint0_linear_256_3999)" stroke="url(#paint1_linear_256_3999)" stroke-width="0.3"/>
<defs>
<linearGradient id="paint0_linear_256_3999" x1="30" y1="1" x2="30" y2="32" gradientUnits="userSpaceOnUse">
<stop stop-color="white" stop-opacity="0.6"/>
<stop offset="1" stop-color="white" stop-opacity="0.3"/>
</linearGradient>
<linearGradient id="paint1_linear_256_3999" x1="30" y1="1" x2="30" y2="32" gradientUnits="userSpaceOnUse">
<stop stop-color="white"/>
<stop offset="1" stop-color="white" stop-opacity="0"/>
</linearGradient>
</defs>
</svg>
