<svg width="60" height="34" viewBox="0 0 60 34" fill="none" xmlns="http://www.w3.org/2000/svg">
<path d="M18.71 9.4043L18.6777 9.58105L18.0586 13.002C17.7367 14.7809 16.2068 16.1191 14.3896 16.1191C13.7282 16.1191 13.2097 16.5715 13.1055 17.1992V17.2012L11.751 24.8994V24.9004C11.6822 25.2804 11.7832 25.6628 12.0264 25.9805L12.123 26.0801C12.364 26.2999 12.7002 26.4346 13.0352 26.4346H15.7295L15.6982 26.6113L15.0791 30.0713C14.7566 31.8536 13.2237 33.1504 11.3711 33.1504H7.78516L7.81836 32.9727L8.28223 30.4453C8.35105 30.064 8.24905 29.6805 8.00391 29.3623C7.76169 29.0865 7.3792 28.9121 6.99805 28.9121H4.30469L4.33496 28.7363L5.04004 24.6348H0.822266L0.852539 24.46L1.43262 21.0381V21.0371C1.75494 19.2154 3.32688 17.919 5.14062 17.9189C5.76283 17.9189 6.31518 17.4693 6.42285 16.8486V16.7725L6.4248 16.7598C6.74708 14.9788 8.31757 13.6426 10.1328 13.6426C10.7551 13.6426 11.3075 13.1921 11.415 12.5713V12.5352L11.417 12.5215C11.7395 10.6999 13.3113 9.4043 15.125 9.4043H18.71ZM45.5312 0.849609L45.501 1.02539L44.1855 8.72363V8.72461C43.8632 10.5462 42.2911 11.8426 40.4775 11.8428C39.8554 11.8428 39.3031 12.2925 39.1953 12.9131V12.9893L39.1934 13.002C38.8711 14.7828 37.3005 16.119 35.4854 16.1191C34.8601 16.1191 34.305 16.5739 34.2012 17.1992L34.1973 17.2217L34.1875 17.2422L34.1582 17.2979C33.866 19.0731 32.2979 20.3573 30.4932 20.3574C29.8736 20.3574 29.3137 20.8454 29.209 21.4766L29.2012 21.5234L29.1621 21.5625C28.8593 23.3617 27.2979 24.6347 25.501 24.6348C24.8757 24.6348 24.3205 25.0894 24.2168 25.7148V25.7168L23.4424 30.0713C23.1199 31.8536 21.5869 33.1504 19.7344 33.1504H16.1904L16.2207 32.9746L17.5361 25.3145L17.5703 25.1445C17.9574 23.4125 19.4872 22.1963 21.2441 22.1963C21.8694 22.1962 22.4246 21.7416 22.5283 21.1162L22.5312 21.0938L22.542 21.0742L22.5703 21.0146C22.8635 19.2031 24.4317 17.9189 26.2363 17.9189C26.8614 17.9189 27.4156 17.4649 27.5195 16.8398L27.5234 16.8174L27.5332 16.7969L27.5625 16.7373C27.8558 14.9657 29.4225 13.6426 31.2285 13.6426C31.8536 13.6424 32.4079 13.1877 32.5117 12.5625L32.5195 12.5146L32.5537 12.4814L32.5596 12.4746C32.8631 10.6763 34.4243 9.4043 36.2207 9.4043C36.882 9.40411 37.3997 8.9519 37.5039 8.32422L37.5049 8.32227L38.2783 3.96777V3.9668C38.6006 2.18704 40.1315 0.849619 41.9863 0.849609H45.5312ZM52.1758 9.4043L52.1436 9.58105L51.6797 12.0986C51.6454 12.4876 51.7508 12.8752 51.9951 13.1924C52.2384 13.4698 52.5843 13.6426 53.002 13.6426H55.6562L55.626 13.8174L54.9209 17.9189H59.1797L59.1475 18.0957L58.5283 21.5176C58.2061 23.337 56.6749 24.6347 54.8594 24.6348C54.2043 24.6348 53.6845 25.0798 53.5391 25.708V25.7812L53.5361 25.7949C53.2141 27.5737 51.6843 28.9121 49.8672 28.9121C49.212 28.9121 48.6922 29.357 48.5469 29.9854V30.0586L48.5439 30.0713C48.2214 31.8536 46.6885 33.1504 44.8359 33.1504H41.292L41.3213 32.9746L41.9023 29.5537V29.5518C42.2246 27.7708 43.7951 26.4346 45.6104 26.4346C46.2357 26.4346 46.7908 25.9799 46.8945 25.3545V25.3535L48.249 17.6543V17.6533C48.3176 17.2739 48.2162 16.8926 47.9736 16.5752C47.687 16.2898 47.3395 16.1191 46.9648 16.1191H44.2695L44.3018 15.9434L44.9209 12.5215C45.2049 10.6985 46.778 9.40444 48.5898 9.4043H52.1758Z" fill="url(#paint0_linear_256_4003)" stroke="url(#paint1_linear_256_4003)" stroke-width="0.3"/>
<defs>
<linearGradient id="paint0_linear_256_4003" x1="30" y1="1" x2="30" y2="33" gradientUnits="userSpaceOnUse">
<stop stop-color="white" stop-opacity="0.6"/>
<stop offset="1" stop-color="white" stop-opacity="0.3"/>
</linearGradient>
<linearGradient id="paint1_linear_256_4003" x1="30" y1="1" x2="30" y2="33" gradientUnits="userSpaceOnUse">
<stop stop-color="white"/>
<stop offset="1" stop-color="white" stop-opacity="0"/>
</linearGradient>
</defs>
</svg>
