<svg width="56" height="16" viewBox="0 0 56 16" fill="none" xmlns="http://www.w3.org/2000/svg">
<path d="M11.3267 8.2819C11.4683 8.43742 11.6705 8.53463 11.893 8.53463H13.2077L12.4998 12.384C12.338 13.2394 11.5694 13.8809 10.6592 13.8809C10.2749 13.8809 9.97154 14.1337 9.91086 14.4836L9.89064 14.5225C9.72883 15.3779 8.96023 16 8.05005 16H1.82036L2.06308 14.7363C2.10353 14.5225 2.04285 14.3086 1.90127 14.1337C1.75968 13.9781 1.53719 13.8809 1.31471 13.8809H0L0.32362 12.1701C0.465204 11.2953 1.25403 10.6731 2.16421 10.6731H3.94412L3.72163 11.9368C3.68118 12.1507 3.74186 12.3645 3.88344 12.5395C4.02502 12.695 4.24751 12.7922 4.47 12.7922H8.43434C8.79842 12.7922 9.12204 12.5395 9.18272 12.1896L9.50634 10.4787C9.54679 10.2649 9.48611 10.0316 9.3243 9.87606C9.18272 9.70109 8.98045 9.60389 8.75796 9.60389H7.44326L7.74665 7.89307C7.90846 7.03767 8.69729 6.39611 9.60747 6.39611H11.3874L11.1447 7.67922C11.1042 7.89307 11.1649 8.10693 11.3267 8.2819ZM13.0662 2.13852H14.3809L14.0775 3.84933C13.9157 4.72418 13.1268 5.34629 12.2167 5.34629H10.4367L10.6795 4.08262C10.7199 3.86877 10.6592 3.63548 10.4974 3.47995C10.3558 3.30498 10.1536 3.20778 9.93109 3.20778H5.94652C5.58244 3.20778 5.25882 3.46051 5.19815 3.82989L4.89475 5.5407C4.8543 5.75456 4.91498 5.96841 5.05656 6.14338C5.19815 6.29891 5.42063 6.39611 5.64312 6.39611H6.95783L6.63421 8.12637C6.4724 8.98177 5.7038 9.60389 4.77339 9.60389H2.99348L3.2362 8.34022C3.27665 8.12637 3.21597 7.91252 3.07439 7.73755C2.93281 7.58202 2.71032 7.48481 2.48783 7.48481H1.17312L1.88104 3.63548C2.04285 2.76063 2.81145 2.13852 3.74186 2.13852C4.10593 2.13852 4.42955 1.88578 4.49023 1.53584V1.49696C4.65204 0.641555 5.42063 0 6.35104 0H12.5605L12.3178 1.28311C12.2773 1.49696 12.338 1.71081 12.4998 1.88578C12.6414 2.04131 12.8437 2.13852 13.0662 2.13852Z" fill="#0A0A0A"/>
<path d="M26.619 2.13852H27.9337L26.0527 12.384C25.8909 13.2394 25.1223 13.8809 24.2121 13.8809C23.8278 13.8809 23.5244 14.1337 23.4637 14.4836L23.4435 14.5225C23.2817 15.3779 22.5131 16 21.6029 16H19.823L20.1264 14.2892C20.2882 13.4338 21.077 12.7922 21.9872 12.7922C22.3513 12.7922 22.6749 12.5395 22.7356 12.1896L24.2323 4.08262C24.2728 3.86877 24.2121 3.63548 24.0503 3.47995C23.9087 3.30498 23.7064 3.20778 23.4839 3.20778H19.5196C19.5196 3.20778 19.5196 3.20778 19.4994 3.20778C19.1353 3.20778 18.8117 3.46051 18.751 3.82989L17.2745 11.9368C17.234 12.1507 17.2947 12.3645 17.4363 12.5395C17.5779 12.695 17.8004 12.7922 18.0229 12.7922H19.3173L19.0139 14.5225C18.8521 15.3779 18.0835 16 17.1531 16H15.3732L15.6159 14.7363C15.6564 14.5225 15.5957 14.3086 15.4541 14.1337C15.3125 13.9781 15.09 13.8809 14.8676 13.8809H13.5528L15.4339 3.63548C15.5957 2.76063 16.3643 2.13852 17.2947 2.13852C17.6588 2.13852 17.9824 1.88578 18.0431 1.53584V1.49696C18.2049 0.641555 18.9735 0 19.9039 0H26.1133L25.8706 1.28311C25.8302 1.49696 25.8909 1.71081 26.0527 1.88578C26.1943 2.04131 26.3965 2.13852 26.619 2.13852Z" fill="#0A0A0A"/>
<path d="M37.0913 0H41.2781L40.9343 1.90522C40.7927 2.66343 40.105 3.20778 39.296 3.20778H36.707C36.4441 3.20778 36.2216 3.40219 36.1811 3.63548L34.1383 14.6974C33.9967 15.4556 33.3292 16 32.5202 16H30.538L32.7831 3.81045C32.8236 3.61604 32.7224 3.46051 32.6618 3.40219C32.6011 3.32442 32.4797 3.20778 32.2572 3.20778H28.4547L28.7985 1.32199C28.9401 0.563791 29.6278 0 30.4369 0H34.6237L34.3405 1.53584C34.3001 1.7497 34.4012 1.88578 34.4619 1.96355C34.5226 2.02187 34.6439 2.13852 34.8664 2.13852C35.1294 2.13852 35.3518 1.96355 35.3923 1.71081L35.453 1.32199C35.5946 0.563791 36.2823 0 37.0913 0Z" fill="#0A0A0A"/>
<path d="M50.4163 8.2819C50.5579 8.43742 50.7601 8.53463 50.9826 8.53463H52.2973L51.5894 12.384C51.4276 13.2394 50.659 13.8809 49.7488 13.8809C49.3645 13.8809 49.0611 14.1337 49.0005 14.4836L48.9802 14.5225C48.8184 15.3779 48.0498 16 47.1396 16H40.91L41.1527 14.7363C41.1931 14.5225 41.1324 14.3086 40.9909 14.1337C40.8493 13.9781 40.6268 13.8809 40.4043 13.8809H39.0896L39.4132 12.1701C39.5548 11.2953 40.3436 10.6731 41.2538 10.6731H43.0337L42.8112 11.9368C42.7708 12.1507 42.8314 12.3645 42.973 12.5395C43.1146 12.695 43.3371 12.7922 43.5596 12.7922H47.5239C47.888 12.7922 48.2116 12.5395 48.2723 12.1896L48.5959 10.4787C48.6364 10.2649 48.5757 10.0316 48.4139 9.87606C48.2723 9.70109 48.07 9.60389 47.8476 9.60389H46.5329L46.8362 7.89307C46.9981 7.03767 47.7869 6.39611 48.6971 6.39611H50.477L50.2343 7.67922C50.1938 7.89307 50.2545 8.10693 50.4163 8.2819ZM52.1557 2.13852H53.4705L53.1671 3.84933C53.0052 4.72418 52.2164 5.34629 51.3062 5.34629H49.5263L49.7691 4.08262C49.8095 3.86877 49.7488 3.63548 49.587 3.47995C49.4454 3.30498 49.2432 3.20778 49.0207 3.20778H45.0361C44.672 3.20778 44.3484 3.46051 44.2877 3.82989L43.9843 5.5407C43.9439 5.75456 44.0046 5.96841 44.1462 6.14338C44.2877 6.29891 44.5102 6.39611 44.7327 6.39611H46.0474L45.7238 8.12637C45.562 8.98177 44.7934 9.60389 43.863 9.60389H42.0831L42.3258 8.34022C42.3662 8.12637 42.3056 7.91252 42.164 7.73755C42.0224 7.58202 41.7999 7.48481 41.5774 7.48481H40.2627L40.9706 3.63548C41.1324 2.76063 41.901 2.13852 42.8314 2.13852C43.1955 2.13852 43.5191 1.88578 43.5798 1.53584V1.49696C43.7416 0.641555 44.5102 0 45.4406 0H51.6501L51.4074 1.28311C51.3669 1.49696 51.4276 1.71081 51.5894 1.88578C51.731 2.04131 51.9333 2.13852 52.1557 2.13852Z" fill="#0A0A0A"/>
<path d="M54.0583 12.7922H56L55.6562 14.6586C55.5146 15.4362 54.8067 16 53.9774 16H52.0559L52.3997 14.1531C52.5413 13.356 53.229 12.7922 54.0583 12.7922Z" fill="#0A0A0A"/>
</svg>
