<svg width="70" height="20" viewBox="0 0 70 20" fill="none" xmlns="http://www.w3.org/2000/svg">
<path d="M14.1584 10.3524C14.3354 10.5468 14.5882 10.6683 14.8663 10.6683H16.5097L15.6248 15.48C15.4225 16.5492 14.4618 17.3512 13.324 17.3512C12.8437 17.3512 12.4644 17.6671 12.3886 18.1045L12.3633 18.1531C12.161 19.2224 11.2003 20 10.0626 20H2.27545L2.57885 18.4204C2.62941 18.1531 2.55356 17.8858 2.37658 17.6671C2.1996 17.4727 1.92149 17.3512 1.64338 17.3512H0L0.404525 15.2126C0.581505 14.1191 1.56753 13.3414 2.70526 13.3414H4.93015L4.65204 14.921C4.60147 15.1883 4.67732 15.4557 4.8543 15.6744C5.03128 15.8688 5.30939 15.9903 5.5875 15.9903H10.5429C10.998 15.9903 11.4025 15.6744 11.4784 15.2369L11.8829 13.0984C11.9335 12.8311 11.8576 12.5395 11.6554 12.3451C11.4784 12.1264 11.2256 12.0049 10.9475 12.0049H9.30407L9.68332 9.86634C9.88558 8.79708 10.8716 7.99514 12.0093 7.99514H14.2342L13.9308 9.59903C13.8803 9.86634 13.9561 10.1337 14.1584 10.3524ZM16.3327 2.67315H17.9761L17.5968 4.81167C17.3946 5.90522 16.4085 6.68287 15.2708 6.68287H13.0459L13.3493 5.10328C13.3999 4.83597 13.324 4.54435 13.1218 4.34994C12.9448 4.13123 12.692 4.00972 12.4139 4.00972H7.43315C6.97806 4.00972 6.57353 4.32564 6.49768 4.78736L6.11844 6.92588C6.06787 7.1932 6.14372 7.46051 6.3207 7.67922C6.49768 7.87363 6.77579 7.99514 7.0539 7.99514H8.69729L8.29276 10.158C8.0905 11.2272 7.12975 12.0049 5.96674 12.0049H3.74186L4.04525 10.4253C4.09582 10.158 4.01997 9.89064 3.84299 9.67193C3.66601 9.47752 3.3879 9.35601 3.10979 9.35601H1.4664L2.3513 4.54435C2.55356 3.45079 3.51431 2.67315 4.67732 2.67315C5.13241 2.67315 5.53694 2.35723 5.61278 1.91981V1.8712C5.81505 0.801944 6.77579 0 7.9388 0H15.7006L15.3972 1.60389C15.3467 1.8712 15.4225 2.13852 15.6248 2.35723C15.8018 2.55164 16.0546 2.67315 16.3327 2.67315Z" fill="white"/>
<path d="M33.2738 2.67315H34.9171L32.5658 15.48C32.3636 16.5492 31.4028 17.3512 30.2651 17.3512C29.7847 17.3512 29.4055 17.6671 29.3296 18.1045L29.3044 18.1531C29.1021 19.2224 28.1413 20 27.0036 20H24.7787L25.158 17.8615C25.3602 16.7922 26.3463 15.9903 27.484 15.9903C27.9391 15.9903 28.3436 15.6744 28.4195 15.2369L30.2904 5.10328C30.341 4.83597 30.2651 4.54435 30.0628 4.34994C29.8859 4.13123 29.633 4.00972 29.3549 4.00972H24.3995C24.3995 4.00972 24.3995 4.00972 24.3742 4.00972C23.9191 4.00972 23.5146 4.32564 23.4387 4.78736L21.5931 14.921C21.5425 15.1883 21.6184 15.4557 21.7954 15.6744C21.9723 15.8688 22.2505 15.9903 22.5286 15.9903H24.1467L23.7674 18.1531C23.5652 19.2224 22.6044 20 21.4414 20H19.2165L19.5199 18.4204C19.5705 18.1531 19.4946 17.8858 19.3176 17.6671C19.1407 17.4727 18.8626 17.3512 18.5844 17.3512H16.9411L19.2924 4.54435C19.4946 3.45079 20.4554 2.67315 21.6184 2.67315C22.0735 2.67315 22.478 2.35723 22.5538 1.91981V1.8712C22.7561 0.801944 23.7169 0 24.8799 0H32.6417L32.3383 1.60389C32.2877 1.8712 32.3636 2.13852 32.5658 2.35723C32.7428 2.55164 32.9956 2.67315 33.2738 2.67315Z" fill="white"/>
<path d="M46.3641 0H51.5977L51.1679 2.38153C50.9909 3.32928 50.1313 4.00972 49.12 4.00972H45.8838C45.5551 4.00972 45.277 4.25273 45.2264 4.54435L42.6728 18.3718C42.4959 19.3196 41.6615 20 40.6502 20H38.1725L40.9789 4.76306C41.0295 4.52005 40.903 4.32564 40.8272 4.25273C40.7513 4.15553 40.5996 4.00972 40.3215 4.00972H35.5684L35.9982 1.65249C36.1752 0.704738 37.0348 0 38.0461 0H43.2796L42.9257 1.91981C42.8751 2.18712 43.0015 2.35723 43.0774 2.45443C43.1532 2.52734 43.3049 2.67315 43.583 2.67315C43.9117 2.67315 44.1898 2.45443 44.2404 2.13852L44.3162 1.65249C44.4932 0.704738 45.3528 0 46.3641 0Z" fill="white"/>
<path d="M63.0204 10.3524C63.1973 10.5468 63.4502 10.6683 63.7283 10.6683H65.3717L64.4868 15.48C64.2845 16.5492 63.3238 17.3512 62.186 17.3512C61.7057 17.3512 61.3264 17.6671 61.2506 18.1045L61.2253 18.1531C61.023 19.2224 60.0623 20 58.9246 20H51.1374L51.4408 18.4204C51.4914 18.1531 51.4156 17.8858 51.2386 17.6671C51.0616 17.4727 50.7835 17.3512 50.5054 17.3512H48.862L49.2665 15.2126C49.4435 14.1191 50.4295 13.3414 51.5672 13.3414H53.7921L53.514 14.921C53.4635 15.1883 53.5393 15.4557 53.7163 15.6744C53.8933 15.8688 54.1714 15.9903 54.4495 15.9903H59.4049C59.86 15.9903 60.2645 15.6744 60.3404 15.2369L60.7449 13.0984C60.7955 12.8311 60.7196 12.5395 60.5174 12.3451C60.3404 12.1264 60.0876 12.0049 59.8094 12.0049H58.1661L58.5453 9.86634C58.7476 8.79708 59.7336 7.99514 60.8713 7.99514H63.0962L62.7928 9.59903C62.7423 9.86634 62.8181 10.1337 63.0204 10.3524ZM65.1947 2.67315H66.8381L66.4588 4.81167C66.2566 5.90522 65.2705 6.68287 64.1328 6.68287H61.9079L62.2113 5.10328C62.2619 4.83597 62.186 4.54435 61.9838 4.34994C61.8068 4.13123 61.554 4.00972 61.2759 4.00972H56.2951C55.84 4.00972 55.4355 4.32564 55.3597 4.78736L54.9804 6.92588C54.9299 7.1932 55.0057 7.46051 55.1827 7.67922C55.3597 7.87363 55.6378 7.99514 55.9159 7.99514H57.5593L57.1548 10.158C56.9525 11.2272 55.9917 12.0049 54.8287 12.0049H52.6038L52.9072 10.4253C52.9578 10.158 52.882 9.89064 52.705 9.67193C52.528 9.47752 52.2499 9.35601 51.9718 9.35601H50.3284L51.2133 4.54435C51.4156 3.45079 52.3763 2.67315 53.5393 2.67315C53.9944 2.67315 54.3989 2.35723 54.4748 1.91981V1.8712C54.677 0.801944 55.6378 0 56.8008 0H64.5626L64.2592 1.60389C64.2087 1.8712 64.2845 2.13852 64.4868 2.35723C64.6637 2.55164 64.9166 2.67315 65.1947 2.67315Z" fill="white"/>
<path d="M67.5729 15.9903H70L69.5702 18.3232C69.3932 19.2953 68.5083 20 67.4717 20H65.0698L65.4997 17.6914C65.6766 16.695 66.5363 15.9903 67.5729 15.9903Z" fill="white"/>
</svg>
